<?xml version="1.0" standalone="no"?><svg xmlns="http://www.w3.org/2000/svg" viewBox="0 0 1440 320"><path fill="#fb8500" fill-opacity="1" d="M0,32L11.4,64C22.9,96,46,160,69,170.7C91.4,181,114,139,137,112C160,85,183,75,206,80C228.6,85,251,107,274,106.7C297.1,107,320,85,343,90.7C365.7,96,389,128,411,144C434.3,160,457,160,480,181.3C502.9,203,526,245,549,250.7C571.4,256,594,224,617,208C640,192,663,192,686,208C708.6,224,731,256,754,234.7C777.1,213,800,139,823,101.3C845.7,64,869,64,891,80C914.3,96,937,128,960,154.7C982.9,181,1006,203,1029,213.3C1051.4,224,1074,224,1097,208C1120,192,1143,160,1166,138.7C1188.6,117,1211,107,1234,117.3C1257.1,128,1280,160,1303,170.7C1325.7,181,1349,171,1371,154.7C1394.3,139,1417,117,1429,106.7L1440,96L1440,320L1428.6,320C1417.1,320,1394,320,1371,320C1348.6,320,1326,320,1303,320C1280,320,1257,320,1234,320C1211.4,320,1189,320,1166,320C1142.9,320,1120,320,1097,320C1074.3,320,1051,320,1029,320C1005.7,320,983,320,960,320C937.1,320,914,320,891,320C868.6,320,846,320,823,320C800,320,777,320,754,320C731.4,320,709,320,686,320C662.9,320,640,320,617,320C594.3,320,571,320,549,320C525.7,320,503,320,480,320C457.1,320,434,320,411,320C388.6,320,366,320,343,320C320,320,297,320,274,320C251.4,320,229,320,206,320C182.9,320,160,320,137,320C114.3,320,91,320,69,320C45.7,320,23,320,11,320L0,320Z"></path></svg>